<svg width="38" height="38" viewBox="0 0 38 38" fill="none" xmlns="http://www.w3.org/2000/svg">
<path d="M27.3125 35.625C25.6684 35.625 24.0613 35.1375 22.6943 34.2241C21.3273 33.3107 20.2619 32.0125 19.6328 30.4936C19.0036 28.9747 18.839 27.3033 19.1597 25.6908C19.4805 24.0783 20.2722 22.5972 21.4347 21.4347C22.5972 20.2722 24.0783 19.4805 25.6908 19.1597C27.3033 18.839 28.9746 19.0036 30.4936 19.6328C32.0125 20.2619 33.3107 21.3273 34.2241 22.6943C35.1375 24.0613 35.625 25.6684 35.625 27.3125C35.6225 29.5163 34.7459 31.6292 33.1876 33.1876C31.6292 34.7459 29.5163 35.6225 27.3125 35.625ZM27.3125 21.375C26.1382 21.375 24.9902 21.7232 24.0138 22.3757C23.0374 23.0281 22.2764 23.9554 21.827 25.0403C21.3776 26.1253 21.26 27.3191 21.4891 28.4709C21.7182 29.6226 22.2837 30.6806 23.1141 31.511C23.9444 32.3413 25.0024 32.9068 26.1542 33.1359C27.3059 33.365 28.4998 33.2474 29.5847 32.798C30.6696 32.3486 31.5969 31.5876 32.2494 30.6112C32.9018 29.6348 33.25 28.4868 33.25 27.3125C33.2484 25.7383 32.6224 24.229 31.5092 23.1158C30.3961 22.0026 28.8867 21.3766 27.3125 21.375Z" fill="#CCCCCC"/>
<path d="M30.875 29.1959L28.5 26.8209V23.75H26.125V27.8041L29.1959 30.875L30.875 29.1959ZM9.5 19H16.625V21.375H9.5V19ZM9.5 11.875H23.75V14.25H9.5V11.875Z" fill="#CCCCCC"/>
<path d="M30.875 4.75C30.8744 4.1203 30.624 3.51658 30.1787 3.07132C29.7334 2.62605 29.1297 2.37563 28.5 2.375H4.75001C4.12031 2.37563 3.51659 2.62605 3.07132 3.07132C2.62606 3.51658 2.37564 4.1203 2.37501 4.75V20.1875C2.37236 22.5558 3.01474 24.8801 4.23318 26.9109C5.45163 28.9417 7.20013 30.6023 9.29101 31.7146L15.4375 34.9921V32.3L10.4096 29.6186C8.69886 28.7086 7.26817 27.35 6.27109 25.6884C5.274 24.0269 4.74817 22.1252 4.75001 20.1875V4.75H28.5V15.4375H30.875V4.75Z" fill="#CCCCCC"/>
</svg>
