<svg width="38" height="38" viewBox="0 0 38 38" fill="none" xmlns="http://www.w3.org/2000/svg">
<path fill-rule="evenodd" clip-rule="evenodd" d="M19.0001 33.25C26.87 33.25 33.2501 26.8699 33.2501 19C33.2501 11.13 26.87 4.74996 19.0001 4.74996C11.1301 4.74996 4.75008 11.13 4.75008 19C4.75008 26.8699 11.1301 33.25 19.0001 33.25ZM19.0001 34.8333C27.7448 34.8333 34.8334 27.7447 34.8334 19C34.8334 10.2552 27.7448 3.16663 19.0001 3.16663C10.2553 3.16663 3.16675 10.2552 3.16675 19C3.16675 27.7447 10.2553 34.8333 19.0001 34.8333Z" fill="#CCCCCC"/>
<path d="M9.5 28.207C9.5 27.3892 10.1112 26.6981 10.925 26.6079C17.0327 25.9318 20.995 25.9927 27.0892 26.6229C27.3936 26.6549 27.682 26.7747 27.9193 26.9679C28.1566 27.1611 28.3325 27.4192 28.4256 27.7107C28.5186 28.0023 28.5247 28.3146 28.4432 28.6095C28.3616 28.9044 28.196 29.1692 27.9664 29.3716C20.7741 35.6408 16.6638 35.5545 10.0067 29.3779C9.68208 29.0771 9.5 28.6496 9.5 28.2078V28.207Z" fill="#CCCCCC"/>
<path fill-rule="evenodd" clip-rule="evenodd" d="M27.0079 27.4099C20.9619 26.7845 17.0566 26.7259 11.0115 27.3948C10.8125 27.418 10.629 27.5138 10.4962 27.6638C10.3635 27.8138 10.2907 28.0076 10.2918 28.2079C10.2918 28.4343 10.386 28.6488 10.5452 28.7977C13.8448 31.8583 16.3449 33.2413 18.7888 33.25C21.2414 33.2587 23.876 31.8868 27.4465 28.7755C27.5599 28.6745 27.6415 28.5428 27.6815 28.3963C27.7215 28.2498 27.718 28.0949 27.6715 27.9503C27.6251 27.8057 27.5376 27.6778 27.4198 27.582C27.302 27.4862 27.1589 27.4267 27.0079 27.4107V27.4099ZM10.8381 25.821C17.0099 25.1378 21.03 25.1995 27.1717 25.8353C27.6296 25.883 28.0635 26.0633 28.4205 26.3539C28.7775 26.6445 29.0419 27.0329 29.1816 27.4715C29.3212 27.9102 29.3299 28.38 29.2066 28.8235C29.0834 29.267 28.8335 29.6649 28.4875 29.9686C24.8656 33.1257 21.8494 34.8452 18.784 34.8333C15.71 34.8223 12.8268 33.0735 9.46929 29.9583C9.2289 29.7344 9.03727 29.4633 8.90637 29.162C8.77547 28.8607 8.70811 28.5356 8.7085 28.2071C8.70735 27.6168 8.924 27.0469 9.31695 26.6065C9.7099 26.1661 10.2515 25.8861 10.8381 25.8202V25.821Z" fill="#CCCCCC"/>
<path d="M25.3334 15.8333C25.3334 17.513 24.6662 19.1239 23.4784 20.3117C22.2907 21.4994 20.6798 22.1667 19.0001 22.1667C17.3204 22.1667 15.7095 21.4994 14.5217 20.3117C13.334 19.1239 12.6667 17.513 12.6667 15.8333C12.6667 14.1536 13.334 12.5427 14.5217 11.355C15.7095 10.1673 17.3204 9.5 19.0001 9.5C20.6798 9.5 22.2907 10.1673 23.4784 11.355C24.6662 12.5427 25.3334 14.1536 25.3334 15.8333Z" fill="#CCCCCC"/>
<path fill-rule="evenodd" clip-rule="evenodd" d="M19.0001 20.5833C20.2599 20.5833 21.468 20.0829 22.3588 19.1921C23.2496 18.3013 23.7501 17.0931 23.7501 15.8333C23.7501 14.5736 23.2496 13.3654 22.3588 12.4746C21.468 11.5838 20.2599 11.0833 19.0001 11.0833C17.7403 11.0833 16.5321 11.5838 15.6413 12.4746C14.7505 13.3654 14.2501 14.5736 14.2501 15.8333C14.2501 17.0931 14.7505 18.3013 15.6413 19.1921C16.5321 20.0829 17.7403 20.5833 19.0001 20.5833ZM19.0001 22.1667C20.6798 22.1667 22.2907 21.4994 23.4784 20.3117C24.6662 19.1239 25.3334 17.513 25.3334 15.8333C25.3334 14.1536 24.6662 12.5427 23.4784 11.355C22.2907 10.1673 20.6798 9.5 19.0001 9.5C17.3204 9.5 15.7095 10.1673 14.5217 11.355C13.334 12.5427 12.6667 14.1536 12.6667 15.8333C12.6667 17.513 13.334 19.1239 14.5217 20.3117C15.7095 21.4994 17.3204 22.1667 19.0001 22.1667Z" fill="#CCCCCC"/>
</svg>
