<svg width="38" height="38" viewBox="0 0 38 38" fill="none" xmlns="http://www.w3.org/2000/svg">
<path d="M17.4167 15.8333H20.5834C22.8222 15.8333 23.9417 15.8333 24.6367 16.53C25.3334 17.225 25.3334 18.3445 25.3334 20.5833V30.0833C25.3334 27.8445 25.3334 26.725 26.0301 26.03C26.7236 25.3333 27.843 25.3333 30.0834 25.3333C32.3238 25.3333 33.4417 25.3333 34.1367 26.03C34.8334 26.725 34.8334 27.8445 34.8334 30.0833V34.8333H3.16675C3.16675 32.5945 3.16675 31.475 3.86341 30.78C4.55691 30.0833 5.67633 30.0833 7.91675 30.0833C10.1572 30.0833 11.275 30.0833 11.9701 30.78C12.6667 31.4735 12.6667 32.5929 12.6667 34.8333V20.5833C12.6667 18.3445 12.6667 17.225 13.3634 16.53C14.0569 15.8333 15.1763 15.8333 17.4167 15.8333ZM17.6479 4.78638C18.2496 3.70496 18.5504 3.16663 19.0001 3.16663C19.4497 3.16663 19.7506 3.70496 20.3522 4.78638L20.5074 5.06504C20.6784 5.37221 20.7639 5.52421 20.8969 5.62554C21.0315 5.72688 21.1977 5.76488 21.5302 5.83929L21.8311 5.90896C22.9996 6.17338 23.5838 6.30479 23.7232 6.75129C23.8625 7.19779 23.4635 7.66488 22.6671 8.59588L22.4612 8.83654C22.2348 9.10096 22.1208 9.23238 22.0702 9.39704C22.0195 9.56171 22.0369 9.73746 22.0702 10.0905L22.1018 10.412C22.2222 11.6549 22.2823 12.2771 21.9197 12.5526C21.5556 12.8297 21.0077 12.5764 19.9137 12.0729L19.6318 11.943C19.3199 11.8005 19.1647 11.7277 19.0001 11.7277C18.8354 11.7277 18.6802 11.8005 18.3683 11.943L18.0865 12.0729C16.9924 12.5764 16.4446 12.8297 16.0804 12.5526C15.7162 12.2771 15.778 11.6549 15.8983 10.412L15.93 10.0905C15.9632 9.73746 15.9807 9.56171 15.93 9.39704C15.8793 9.23238 15.7653 9.10096 15.5389 8.83654L15.3331 8.59588C14.5367 7.66488 14.1377 7.19938 14.277 6.75129C14.4163 6.30479 15.0006 6.17338 16.1691 5.90896L16.4699 5.83929C16.8024 5.76488 16.9687 5.72846 17.1032 5.62554C17.2362 5.52421 17.3217 5.37221 17.4927 5.06504L17.6479 4.78638Z" fill="#CCCCCC"/>
</svg>
