<svg width="34" height="34" viewBox="0 0 34 34" fill="none" xmlns="http://www.w3.org/2000/svg">
<g clip-path="url(#clip0_691_203)">
<path d="M14.6272 20.9142C12.8598 20.3999 11.3071 19.326 10.2022 17.8538C9.09736 16.3816 8.50007 14.5906 8.50008 12.75V1.41663H25.5001V14.1666M8.50008 4.24996H1.41675V9.91663C1.41675 13.471 3.954 15.5833 7.08341 15.5833H8.50008M28.3816 15.4204C30.8012 14.8608 32.5834 12.8959 32.5834 9.91663V4.24996H25.5001M14.1667 26.9166H7.08341V32.5833H23.3751M28.3334 19.8333L21.9584 26.2083L18.4167 22.6666M14.4586 21.8506C13.519 22.3221 12.7292 23.0456 12.1773 23.9402C11.6254 24.8349 11.3332 25.8654 11.3334 26.9166M23.3751 14.1666C20.9329 14.1666 18.5907 15.1368 16.8638 16.8637C15.1369 18.5906 14.1667 20.9328 14.1667 23.375C14.1667 25.8172 15.1369 28.1593 16.8638 29.8862C18.5907 31.6131 20.9329 32.5833 23.3751 32.5833C25.8173 32.5833 28.1595 31.6131 29.8864 29.8862C31.6133 28.1593 32.5834 25.8172 32.5834 23.375C32.5834 20.9328 31.6133 18.5906 29.8864 16.8637C28.1595 15.1368 25.8173 14.1666 23.3751 14.1666Z" stroke="#CCCCCC" stroke-width="2"/>
</g>
<defs>
<clipPath id="clip0_691_203">
<rect width="34" height="34" fill="white"/>
</clipPath>
</defs>
</svg>
