<svg width="35" height="37" viewBox="0 0 35 37" fill="none" xmlns="http://www.w3.org/2000/svg">
<path d="M15.2044 23.0523C13.3673 22.4878 11.7533 21.3091 10.6048 19.6933C9.45632 18.0774 8.83546 16.1117 8.83547 14.0915V1.65247H26.5065V15.6464M8.83547 4.76222H1.47253V10.9817C1.47253 14.8829 4.10994 17.2012 7.36288 17.2012H8.83547M29.5018 17.0224C32.0169 16.4083 33.8695 14.2516 33.8695 10.9817V4.76222H26.5065M14.7258 29.6403H7.36288V35.8598H24.2976M29.4517 21.8659L22.8251 28.8628L19.1436 24.9756M15.0292 24.08C14.0526 24.5975 13.2315 25.3916 12.6578 26.3735C12.0841 27.3554 11.7804 28.4865 11.7806 29.6403M24.2976 15.6464C21.759 15.6464 19.3244 16.7112 17.5293 18.6066C15.7343 20.5019 14.7258 23.0726 14.7258 25.7531C14.7258 28.4335 15.7343 31.0042 17.5293 32.8996C19.3244 34.795 21.759 35.8598 24.2976 35.8598C26.8362 35.8598 29.2709 34.795 31.0659 32.8996C32.861 31.0042 33.8695 28.4335 33.8695 25.7531C33.8695 23.0726 32.861 20.5019 31.0659 18.6066C29.2709 16.7112 26.8362 15.6464 24.2976 15.6464Z" stroke="#CCCCCC" stroke-width="2"/>
</svg>
