<svg width="28" height="28" viewBox="0 0 28 28" fill="none" xmlns="http://www.w3.org/2000/svg">
<g clip-path="url(#clip0_691_1046)">
<path d="M14 28C21.732 28 28 21.732 28 14C28 6.26801 21.732 0 14 0C6.26801 0 0 6.26801 0 14C0 21.732 6.26801 28 14 28Z" fill="#FFCC4D"/>
<path d="M13.9998 22.5556C15.2885 22.5556 16.3332 21.5109 16.3332 20.2222C16.3332 18.9336 15.2885 17.8889 13.9998 17.8889C12.7112 17.8889 11.6665 18.9336 11.6665 20.2222C11.6665 21.5109 12.7112 22.5556 13.9998 22.5556Z" fill="#664500"/>
<path d="M13.4647 12.9204C13.3978 12.8666 13.3151 12.8364 13.2293 12.8344C13.1435 12.8324 13.0595 12.8589 12.9902 12.9095C12.9809 12.9165 12.0102 13.6111 10.1109 13.6111C8.21236 13.6111 7.24091 12.9165 7.23314 12.9111C7.16427 12.8594 7.0802 12.832 6.99411 12.8333C6.90802 12.8345 6.82477 12.8643 6.75743 12.918C6.69008 12.9716 6.64245 13.0461 6.62198 13.1297C6.60152 13.2133 6.60939 13.3014 6.64436 13.3801C6.69103 13.4851 7.81103 15.9444 10.1109 15.9444C12.4116 15.9444 13.5308 13.4851 13.5775 13.3801C13.6121 13.3018 13.6199 13.2142 13.5995 13.131C13.5791 13.0479 13.5317 12.9738 13.4647 12.9204ZM21.2425 12.9204C21.1757 12.8665 21.0929 12.8362 21.0071 12.8342C20.9213 12.8322 20.8372 12.8587 20.768 12.9095C20.7587 12.9165 19.7872 13.6111 17.8887 13.6111C15.9909 13.6111 15.0187 12.9165 15.0109 12.9111C14.942 12.8594 14.858 12.832 14.7719 12.8333C14.6858 12.8345 14.6026 12.8643 14.5352 12.918C14.4679 12.9716 14.4202 13.0461 14.3998 13.1297C14.3793 13.2133 14.3872 13.3014 14.4221 13.3801C14.4688 13.4851 15.5888 15.9444 17.8887 15.9444C20.1894 15.9444 21.3086 13.4851 21.3552 13.3801C21.3899 13.3018 21.3976 13.2142 21.3772 13.131C21.3568 13.0479 21.3094 12.9738 21.2425 12.9204Z" fill="#664500"/>
<path d="M26.779 9.74869C26.7821 9.71447 26.7969 9.6888 26.7969 9.65302C26.7969 9.06658 26.3707 8.72902 25.8441 8.72902H23.0581L26.3862 4.0678C26.5465 3.84769 26.6056 3.71547 26.6056 3.43702C26.6056 2.86536 26.1078 2.77669 25.9172 2.77669H21.7569L21.732 2.24158C21.732 2.24158 20.6361 2.88791 20.563 2.93224C20.4899 2.97658 20.1702 3.22158 20.1702 3.69991C20.1702 4.28636 20.5949 4.62313 21.123 4.62313H23.5722L20.2581 9.28436C20.185 9.4018 20.0684 9.62113 20.0684 9.85602C20.0684 10.3398 20.4635 10.5747 20.9325 10.5747H25.8441C26.0448 10.5747 26.2447 10.5156 26.3738 10.4378L27.5428 9.74713H26.779V9.74869Z" fill="#FFAC33"/>
<path d="M24.7109 3.95422H22.2617C21.7336 3.95422 21.3089 3.61744 21.3089 3.03099C21.3089 2.44455 21.7336 2.10699 22.2617 2.10699H27.0559C27.2465 2.10699 27.7443 2.19488 27.7443 2.76655C27.7443 3.04499 27.6851 3.17722 27.5249 3.39733L24.1968 8.05855H26.9828C27.5094 8.05855 27.9356 8.39533 27.9356 8.98177C27.9356 9.56822 27.5094 9.90499 26.9828 9.90499H22.0711C21.6021 9.90499 21.207 9.67011 21.207 9.18633C21.207 8.95144 21.3237 8.73211 21.3968 8.61466L24.7109 3.95422Z" fill="#FAFDFF"/>
<path d="M19.3557 5.81776C19.358 5.7921 19.3697 5.77265 19.3697 5.74621C19.3697 5.30754 19.0508 5.05476 18.6565 5.05476H16.5705L19.0617 1.56487C19.183 1.39999 19.2266 1.30121 19.2266 1.09354C19.2266 0.665763 18.854 0.599652 18.7109 0.599652H15.5967L15.578 0.199097C15.578 0.199097 14.7575 0.682874 14.703 0.716319C14.6106 0.780641 14.5355 0.86672 14.4842 0.966961C14.4329 1.0672 14.4071 1.17852 14.409 1.2911C14.409 1.72976 14.7271 1.98254 15.1223 1.98254H16.9555L14.4744 5.47243C14.4199 5.56032 14.332 5.72443 14.332 5.90021C14.332 6.26265 14.6276 6.43765 14.9791 6.43765H18.6565C18.8066 6.43765 18.9559 6.39332 19.0531 6.33499L19.9281 5.81776H19.3557Z" fill="#FFAC33"/>
<path d="M17.808 1.48012H15.9748C15.5797 1.48012 15.2616 1.22812 15.2616 0.788674C15.2616 0.350007 15.5797 0.097229 15.9748 0.097229H19.5642C19.7073 0.097229 20.0799 0.16334 20.0799 0.591118C20.0799 0.799562 20.0356 0.89834 19.9158 1.06323L17.4246 4.55312H19.5106C19.9033 4.55312 20.2222 4.80512 20.2222 5.24456C20.2222 5.68401 19.9033 5.93601 19.509 5.93601H15.8317C15.4801 5.93601 15.1846 5.76023 15.1846 5.39856C15.1846 5.22278 15.2725 5.05867 15.3269 4.97078L17.808 1.48012Z" fill="#FAFDFF"/>
<path d="M13.7984 8.10836C13.8007 8.08658 13.81 8.07025 13.81 8.04692C13.81 7.67125 13.537 7.45503 13.1995 7.45503H11.4145L13.5472 4.46836C13.6498 4.32758 13.6879 4.24281 13.6879 4.06469C13.6879 3.69836 13.369 3.64158 13.2469 3.64158H10.5815L10.5652 3.29858L9.81616 3.74114C9.7369 3.79614 9.67243 3.86985 9.62847 3.95573C9.58452 4.04161 9.56242 4.13701 9.56416 4.23347C9.56416 4.60914 9.83638 4.82536 10.1747 4.82536H11.7435L9.62016 7.81203C9.57349 7.88747 9.49805 8.02825 9.49805 8.17836C9.49805 8.4887 9.7516 8.63881 10.0518 8.63881H13.1995C13.3278 8.63881 13.4562 8.6007 13.5386 8.55092L14.2876 8.10836H13.7984Z" fill="#FFAC33"/>
<path d="M12.473 4.396H10.9042C10.5659 4.396 10.2937 4.17977 10.2937 3.80411C10.2937 3.42844 10.5659 3.21222 10.9042 3.21222H13.9764C14.0985 3.21222 14.4174 3.269 14.4174 3.63533C14.4174 3.81344 14.3801 3.89822 14.2767 4.039L12.144 7.02566H13.929C14.2665 7.02566 14.5395 7.24189 14.5395 7.61755C14.5395 7.99322 14.2665 8.20944 13.929 8.20944H10.7813C10.4811 8.20944 10.2275 8.05933 10.2275 7.749C10.2275 7.59889 10.3022 7.45811 10.3497 7.38266L12.473 4.396Z" fill="#ABC2D3"/>
</g>
<defs>
<clipPath id="clip0_691_1046">
<rect width="28" height="28" fill="white"/>
</clipPath>
</defs>
</svg>
