<svg width="40" height="40" viewBox="0 0 40 40" fill="none" xmlns="http://www.w3.org/2000/svg">
<path d="M18.9219 30.7188C13.675 32.2282 10.7937 24.8344 9.69374 22.1969C7.49999 16.9282 1.77812 13.2532 2.19999 9.37503C2.62187 5.49691 7.38749 5.88441 7.38749 5.88441" stroke="#BDBDBD" stroke-width="1.875" stroke-miterlimit="10" stroke-linejoin="round"/>
<path d="M18.5938 30.7187C23.8719 29.3187 22.1531 21.6843 21.7406 18.8562C20.9188 13.2062 23.9406 7.11559 21.5875 4.00622C19.2344 0.896842 15.3438 3.67497 15.3438 3.67497" stroke="#BDBDBD" stroke-width="1.875" stroke-miterlimit="10" stroke-linejoin="round"/>
<path d="M31.825 14.8375C34.4569 14.8375 36.5906 12.7039 36.5906 10.0719C36.5906 7.43992 34.4569 5.30627 31.825 5.30627C29.193 5.30627 27.0593 7.43992 27.0593 10.0719C27.0593 12.7039 29.193 14.8375 31.825 14.8375Z" fill="#878787"/>
<path d="M31.9937 13.9187C34.3081 13.9187 36.1844 12.0425 36.1844 9.7281C36.1844 7.41368 34.3081 5.53748 31.9937 5.53748C29.6793 5.53748 27.8031 7.41368 27.8031 9.7281C27.8031 12.0425 29.6793 13.9187 31.9937 13.9187Z" fill="#BDBDBD"/>
<path d="M21.6844 18.4156C21.4063 20.5219 24.8531 28.2156 19.5063 30.3219C13.5188 32.6844 11.2844 23.9 9.6969 22.1969" stroke="#03A9F4" stroke-width="2.5" stroke-miterlimit="10"/>
<path d="M10.1969 22.9812C10.1969 22.9812 13.5625 26.5312 17.5094 24.9031C21.25 23.3593 21.8313 19.2625 21.8313 19.2625" stroke="#03A9F4" stroke-width="1.5625" stroke-miterlimit="10"/>
<path opacity="0.22" d="M31.55 6.6969C29.9125 7.07815 28.8969 8.71253 29.275 10.35C29.3313 10.5938 29.4188 10.8313 29.5344 11.0563L29.7469 11.475C29.1469 12.2594 28.6594 12.5594 28.4938 13.4688C28.9188 13.8844 29.4157 14.2157 29.9594 14.4469C29.9594 14.4438 29.9625 14.4407 29.9625 14.4375C29.9625 14.4407 29.9656 14.4438 29.9656 14.45C30.8625 14.8313 31.8844 14.9469 32.9094 14.7094C33.025 14.6813 33.1344 14.6469 33.2438 14.6125L33.1469 13.7375C33.1469 13.7375 33.2719 12.6282 33.3 12.5688C33.3719 12.4282 33.6625 12.3532 33.8125 12.2657C34.175 12.0469 34.4906 11.75 34.7344 11.4032C34.9774 11.0528 35.1447 10.6557 35.2254 10.237C35.3061 9.81835 35.2985 9.38746 35.2031 8.9719C34.8219 7.3344 33.1844 6.31565 31.55 6.6969Z" fill="#212121"/>
<path d="M18.8812 30.0094C21.8781 36.875 26.4719 37.8469 29.8656 37.2563C32.8468 36.7344 36.7937 34.0625 36.7843 29.2188C36.7718 23.3813 32.8781 23.75 30.7687 20.0094C28.1406 15.3469 31.7219 11.0657 31.7219 11.0657" stroke="#03A9F4" stroke-width="2.5" stroke-miterlimit="10"/>
<path opacity="0.22" d="M29.6062 12.1156C29.6062 12.1156 30.2 11.8125 30.7687 12.1375C31.6687 12.65 31.7562 13.3812 31.7562 13.3812C31.7562 13.3812 32.3 12.3 32.5906 12.0062C32.8781 11.7094 30.85 10.2375 30.3906 10.8031C29.9312 11.3687 29.6062 12.1156 29.6062 12.1156Z" fill="#212121"/>
<path d="M8.69686 4.38745C8.22811 4.39057 7.81561 4.61557 7.54374 4.9562L7.15624 4.64995C6.80311 4.37182 6.28436 4.62495 6.28749 5.07495L6.29999 6.69682C6.30311 7.14682 6.82499 7.3937 7.17186 7.10932L7.54999 6.80307C7.82499 7.1437 8.24374 7.36557 8.71561 7.36245C9.53749 7.3562 10.2 6.68432 10.1937 5.86245C10.1875 5.04057 9.51874 4.3812 8.69686 4.38745ZM16.6031 3.8187L15.775 2.42495C15.5437 2.03745 14.9687 2.09057 14.8125 2.50932L14.6406 2.97182C14.2312 2.8187 13.7625 2.84057 13.3594 3.0812C13.1912 3.181 13.0443 3.31299 12.9272 3.4696C12.8101 3.62622 12.725 3.8044 12.6768 3.99394C12.6286 4.18347 12.6183 4.38065 12.6464 4.57419C12.6745 4.76772 12.7405 4.95382 12.8406 5.12182C12.9404 5.29 13.0724 5.43686 13.229 5.55397C13.3856 5.67109 13.5638 5.75618 13.7534 5.80436C13.9429 5.85254 14.1401 5.86288 14.3336 5.83477C14.5271 5.80667 14.7132 5.74067 14.8812 5.64057C15.2875 5.39995 15.5312 4.9937 15.5906 4.55932L16.0719 4.62495C16.5156 4.68432 16.8344 4.2062 16.6031 3.8187Z" fill="#616161"/>
<path d="M32.5594 12.0063C34.1334 12.0063 35.4093 10.7303 35.4093 9.15627C35.4093 7.58226 34.1334 6.30627 32.5594 6.30627C30.9853 6.30627 29.7094 7.58226 29.7094 9.15627C29.7094 10.7303 30.9853 12.0063 32.5594 12.0063Z" fill="#424242"/>
<path d="M32.7031 11.1469C33.925 11.1469 34.9156 10.1564 34.9156 8.93442C34.9156 7.71249 33.925 6.72192 32.7031 6.72192C31.4812 6.72192 30.4906 7.71249 30.4906 8.93442C30.4906 10.1564 31.4812 11.1469 32.7031 11.1469Z" fill="#D1D1D1"/>
<path d="M13.2407 4.72188C12.9813 4.35 13.0313 3.65625 13.4782 3.34063C13.925 3.025 14.6 3.1625 14.8594 3.57813C15.15 4.04063 14.3907 3.625 13.9438 3.94063C13.4969 4.25625 13.5532 5.17188 13.2407 4.72188ZM7.81566 5.39063C7.92816 4.95 8.48129 4.53438 9.01254 4.66563C9.54379 4.79688 9.88129 5.39375 9.73754 5.8625C9.57816 6.38438 9.39379 5.5375 8.86254 5.40938C8.33441 5.27813 7.68129 5.92188 7.81566 5.39063Z" fill="#757575"/>
</svg>
